####
#
# OBJ File Generated by Meshlab
#
####
# Object banana2_centered_24_44_vrt_fc.obj
#
# Vertices: 24
# Faces: 44
#
####
mtllib ./banana2_centered_24_44_vrt_fc.obj.mtl

vn 0.551781 -0.167418 -0.817012
v 0.387929 1.575857 -8.954608 0.725490 0.666667 0.301961
vn -0.358923 0.824206 0.438018
v -0.321472 1.186034 -7.186986 0.882353 0.788235 0.356863
vn -0.666386 -0.741865 -0.074613
v -1.237014 -4.024489 -1.825393 0.784314 0.631373 0.235294
vn 0.139328 -0.915601 0.377177
v 0.125313 -3.430794 4.080317 0.631373 0.349020 0.027451
vn -0.874606 -0.463692 0.141610
v -1.861357 -2.713205 3.451756 0.917647 0.713725 0.250980
vn 0.256962 0.290853 0.921615
v 0.234661 2.596149 10.151612 0.894118 0.760784 0.274510
vn -0.948848 0.241646 0.203212
v -1.597541 1.489489 7.740378 0.949020 0.788235 0.341176
vn -0.149735 0.975670 -0.160146
v -0.288178 2.947075 7.852135 0.996078 0.905882 0.396078
vn 0.811901 0.577845 -0.083132
v 1.476908 1.253723 6.148304 1.000000 0.886275 0.384314
vn -0.380738 -0.652966 0.654732
v -0.971602 -1.106116 7.819358 0.898039 0.745098 0.286275
vn 0.730077 -0.505794 0.459522
v 1.357982 -1.616527 6.174338 0.949020 0.756863 0.352941
vn 0.956564 -0.271046 0.107329
v 1.790972 -2.672335 2.392686 1.000000 0.937255 0.529412
vn 0.082524 -0.729205 -0.679301
v 0.238302 -2.688305 -7.203370 0.803922 0.670588 0.329412
vn 0.976214 0.045037 -0.212082
v 1.777373 -1.813371 -6.630630 0.988235 0.858824 0.454902
vn 0.751491 -0.638189 -0.167260
v 1.779374 -3.525367 -3.187188 0.992157 0.862745 0.458824
vn 0.037995 -0.998434 -0.041062
v 0.402697 -4.805257 -1.325770 1.000000 0.941176 0.568627
vn 0.468228 0.861078 0.198259
v 0.960693 -0.215155 -3.693935 0.996078 0.925490 0.352941
vn 0.498134 0.866237 -0.038681
v 0.984391 -0.394360 -1.185104 0.996078 0.909804 0.380392
vn -0.899363 -0.339748 -0.275168
v -1.269891 -2.595674 -6.087191 0.756863 0.623529 0.231373
vn -0.672960 0.712311 -0.199344
v -1.391690 -0.669141 0.716733 1.000000 0.862745 0.392157
vn -0.664528 0.744107 0.068609
v -1.068524 -0.639327 -3.026058 0.988235 0.847059 0.376471
vn 0.819624 0.556158 0.137496
v 0.968991 0.770168 -7.366533 0.976471 0.862745 0.454902
vn -0.844536 -0.118072 -0.522319
v -0.794581 -0.050468 -8.079518 0.835294 0.729412 0.286275
vn 0.230371 0.945208 -0.231326
v -0.562815 4.327371 -9.985090 0.827451 0.768627 0.364706
# 24 vertices, 0 vertices normals


usemtl material_0
vt 0.081055 0.464302
vt 0.043702 0.374631
vt 0.086419 0.468891
f 2/1/2 24/2/24 23/3/23
vt 0.266601 0.858014
vt 0.256312 0.900851
vt 0.242146 0.903141
f 22/4/22 1/5/1 24/6/24
vt 0.297949 0.886643
vt 0.293927 0.905379
vt 0.286623 0.898818
f 1/7/1 23/8/23 24/9/24
vt 0.032353 0.622586
vt 0.038352 0.611385
vt 0.045263 0.613815
f 17/10/17 2/11/2 21/12/21
vt 0.317685 0.814195
vt 0.307668 0.865052
vt 0.296474 0.834836
f 14/13/14 1/14/1 22/15/22
vt 0.079284 0.603775
vt 0.083413 0.576382
vt 0.098003 0.586503
f 21/16/21 2/17/2 23/18/23
vt 0.302263 0.720394
vt 0.305729 0.719348
vt 0.294453 0.737456
f 17/19/17 22/20/22 2/21/2
vt 0.386925 0.843804
vt 0.360183 0.854865
vt 0.363382 0.831288
f 13/22/13 1/23/1 14/24/14
vt 0.231186 0.595312
vt 0.196501 0.616757
vt 0.196103 0.604749
f 13/25/13 19/26/19 23/27/23
vt 0.113768 0.829064
vt 0.119470 0.816498
vt 0.124900 0.824630
f 5/28/5 19/29/19 3/30/3
vt 0.668732 0.295195
vt 0.674252 0.288454
vt 0.671727 0.298455
f 5/31/5 10/32/10 7/33/7
vt 0.594832 0.182335
vt 0.592198 0.178608
vt 0.601891 0.179422
f 7/34/7 20/35/20 5/36/5
vt 0.485287 0.091847
vt 0.479593 0.095728
vt 0.483888 0.085304
f 20/37/20 18/38/18 21/39/21
vt 0.286943 0.566699
vt 0.298679 0.562104
vt 0.297740 0.566999
f 21/40/21 18/41/18 17/42/17
vt 0.219425 0.724310
vt 0.242864 0.740018
vt 0.242482 0.750825
f 19/43/19 13/44/13 16/45/16
vt 0.530858 0.666918
vt 0.505707 0.680513
vt 0.490942 0.670698
f 16/46/16 13/47/13 15/48/15
vt 0.191126 0.793939
vt 0.188283 0.813195
vt 0.170728 0.808654
f 19/49/19 16/50/16 3/51/3
vt 0.537947 0.396200
vt 0.519587 0.346700
vt 0.526809 0.341492
f 16/52/16 12/53/12 4/54/4
vt 0.508715 0.348214
vt 0.498861 0.338044
vt 0.509320 0.328834
f 12/55/12 11/56/11 4/57/4
vt 0.701407 0.147300
vt 0.707088 0.139328
vt 0.708646 0.146428
f 5/58/5 16/59/16 4/60/4
vt 0.709910 0.193889
vt 0.710560 0.188859
vt 0.717168 0.192626
f 10/61/10 5/62/5 4/63/4
vt 0.551567 0.282336
vt 0.588184 0.271307
vt 0.568379 0.301268
f 20/64/20 7/65/7 8/66/8
vt 0.491171 0.505500
vt 0.504112 0.475146
vt 0.513826 0.481082
f 15/67/15 12/68/12 16/69/16
vt 0.378851 0.542478
vt 0.403560 0.547885
vt 0.382267 0.548149
f 12/70/12 14/71/14 18/72/18
vt 0.286302 0.353161
vt 0.297129 0.331670
vt 0.303479 0.350388
f 20/73/20 8/74/8 9/75/9
vt 0.360636 0.327505
vt 0.345243 0.337351
vt 0.348706 0.327718
f 12/76/12 18/77/18 9/78/9
vt 0.465800 0.229614
vt 0.448512 0.229919
vt 0.455546 0.223154
f 4/79/4 11/80/11 10/81/10
vt 0.709119 0.370178
vt 0.703927 0.376107
vt 0.685701 0.374690
f 10/82/10 6/83/6 7/84/7
vt 0.348836 0.577337
vt 0.358868 0.589550
vt 0.353153 0.589506
f 18/85/18 14/86/14 17/87/17
vt 0.450327 0.574261
vt 0.426895 0.582561
vt 0.426951 0.575461
f 15/88/15 14/89/14 12/90/12
vt 0.297539 0.376576
vt 0.301758 0.376613
vt 0.295750 0.381760
f 20/91/20 9/92/9 18/93/18
vt 0.635783 0.462769
vt 0.641895 0.479914
vt 0.605800 0.448534
f 7/94/7 6/95/6 8/96/8
vt 0.265626 0.148669
vt 0.257590 0.135762
vt 0.264098 0.126946
f 9/97/9 8/98/8 6/99/6
vt 0.364239 0.138571
vt 0.332002 0.112865
vt 0.386187 0.121564
f 11/100/11 6/101/6 10/102/10
vt 0.330034 0.154815
vt 0.335193 0.144622
vt 0.357076 0.146875
f 9/103/9 6/104/6 11/105/11
vt 0.361213 0.243378
vt 0.368407 0.239752
vt 0.369164 0.245102
f 9/106/9 11/107/11 12/108/12
vt 0.457858 0.709310
vt 0.464435 0.743741
vt 0.450145 0.726172
f 15/109/15 13/110/13 14/111/14
vt 0.144961 0.924534
vt 0.141691 0.917211
vt 0.149533 0.923327
f 5/112/5 3/113/3 16/114/16
vt 0.335017 0.659041
vt 0.332165 0.664187
vt 0.325430 0.662396
f 14/115/14 22/116/22 17/117/17
vt 0.052186 0.831087
vt 0.045277 0.837899
vt 0.028574 0.805721
f 19/118/19 5/119/5 20/120/20
vt 0.049226 0.782484
vt 0.056370 0.786158
vt 0.051583 0.789857
f 21/121/21 19/122/19 20/123/20
vt 0.105726 0.697076
vt 0.105854 0.707019
vt 0.101618 0.703995
f 23/124/23 19/125/19 21/126/21
vt 0.175740 0.582195
vt 0.194891 0.531706
vt 0.227135 0.566504
f 23/127/23 1/128/1 13/129/13
vt 0.285907 0.800258
vt 0.240437 0.896638
f 22/130/22 24/6/24 2/131/2
# 44 faces, 131 coords texture

# End of File
